<svg viewBox="0 0 64 64" xmlns="http://www.w3.org/2000/svg"><path d="m32 63c-17.09 0-31-13.91-31-31s13.91-31 31-31 31 13.91 31 31-13.91 31-31 31z"/><g fill="#fff"><path d="m32 2c16.54 0 30 13.46 30 30s-13.46 30-30 30-30-13.46-30-30 13.46-30 30-30m0-2c-17.67 0-32 14.33-32 32s14.33 32 32 32 32-14.33 32-32-14.33-32-32-32z"/><path d="m32 4c-.59 0-1.18.02-1.77.06-.14 0-.28.02-.42.03-.5.04-1 .09-1.5.16-.08.01-.16.02-.23.03-1.94.27-3.81.74-5.6 1.38s0 0 0 0c-.66.24-1.31.51-1.95.79-.07.03-.15.07-.22.1-3.22 1.48-6.11 3.55-8.53 6.08 0 0 0 0-.01.01-.31.33-.62.66-.92 1-.01.01-.02.03-.03.04-.29.33-.57.67-.84 1.02-.02.02-.04.05-.05.07-.26.34-.52.68-.77 1.03-.02.03-.05.07-.07.1-.24.34-.47.68-.69 1.03-.03.05-.06.09-.09.14-.21.34-.42.68-.62 1.03-.04.06-.07.12-.11.18-.19.33-.37.67-.54 1.02-.04.08-.08.15-.12.23-.16.33-.32.67-.47 1-.04.09-.08.18-.13.28-.14.33-.28.66-.41.99-.04.11-.09.21-.13.32-.12.32-.23.64-.34.97-.04.12-.09.25-.13.37-.1.31-.19.63-.28.95-.04.14-.08.28-.12.42-.08.31-.15.62-.23.94-.03.15-.07.3-.1.45-.06.31-.12.62-.17.93-.03.16-.06.32-.09.48-.05.31-.09.63-.12.95-.02.16-.04.32-.06.49-.03.33-.06.67-.08 1.01-.01.15-.03.29-.03.44-.03.49-.04.98-.04 1.47s.01.98.04 1.47c0 .15.02.3.03.44.02.34.05.68.08 1.01.02.16.04.32.06.49.04.32.08.63.12.95.03.16.06.32.09.48.05.31.11.62.17.93.03.15.07.3.1.45.07.31.14.63.23.94l.12.42c.09.32.18.64.28.95.04.13.08.25.13.37.11.33.22.65.34.97.04.11.09.22.13.32.13.33.26.66.41.99.04.09.08.18.12.28.15.34.31.67.47 1.01.04.08.08.15.12.23.17.34.36.68.54 1.02.03.06.07.12.1.18.2.35.41.69.62 1.03.03.05.06.09.09.14.22.35.46.7.7 1.04.02.03.05.07.07.1.25.35.51.69.77 1.03.02.02.03.04.05.07.27.35.55.69.84 1.02.01.01.02.02.03.04.3.34.6.68.92 1.01 2.42 2.53 5.31 4.6 8.53 6.08.07.03.15.07.22.1.64.29 1.28.55 1.95.79 1.79.65 3.66 1.11 5.6 1.38.08.01.15.02.23.03.5.07.99.12 1.5.16.14.01.28.02.42.03.59.04 1.17.06 1.77.06 15.46 0 28-12.54 28-28s-12.52-28-27.98-28zm-19.23 45.48v-34.96c.63-.69 1.3-1.35 2-1.97v38.9c-.7-.62-1.37-1.27-2-1.97zm9.71-41.67c.65-.26 1.32-.49 2-.7v49.78c-.68-.21-1.35-.44-2-.7zm9.52 50.19v-52c14.34 0 26 11.66 26 26s-11.66 26-26 26z"/></g></svg>